# WaveFront *.obj file (generated by Autodesk ATF)

mtllib 3612423f-fc94-42be-9bbb-65931d8d146e.mtl

g Body2

v -0.000000 0.000000 -50.000000
v 50.000000 0.000000 0.000000
v 0.000000 -80.000000 -0.000000
v -50.000000 0.000000 0.000000
v -0.000000 0.000000 50.000000
v 0.000000 80.000000 -0.000000
vt -7.071068 0.000000 0.000000
vt 0.000000 0.000000 0.000000
vt -3.535534 8.746428 0.000000
vt -7.071068 -0.000000 0.000000
vt -0.000000 0.000000 0.000000
vt -3.535534 8.746428 0.000000
vt -7.071068 0.000000 0.000000
vt -0.000000 0.000000 0.000000
vt -3.535534 8.746428 0.000000
vt -7.071068 0.000000 0.000000
vt -0.000000 -0.000000 0.000000
vt -3.535534 8.746428 0.000000
vt -0.000000 0.000000 0.000000
vt 7.071068 0.000000 0.000000
vt 3.535534 8.746428 0.000000
vt 0.000000 0.000000 0.000000
vt 7.071068 -0.000000 0.000000
vt 3.535534 8.746428 0.000000
vt 0.000000 0.000000 0.000000
vt 7.071068 0.000000 0.000000
vt 3.535534 8.746428 0.000000
vt 0.000000 0.000000 0.000000
vt 7.071068 0.000000 0.000000
vt 3.535534 8.746428 0.000000
vn 0.064676 -0.040423 -0.064676
vn 0.064676 -0.040423 -0.064676
vn 0.064676 -0.040423 -0.064676
vn -0.064676 -0.040423 -0.064676
vn -0.064676 -0.040423 -0.064676
vn -0.064676 -0.040423 -0.064676
vn -0.064676 -0.040423 0.064676
vn -0.064676 -0.040423 0.064676
vn -0.064676 -0.040423 0.064676
vn 0.064676 -0.040423 0.064676
vn 0.064676 -0.040423 0.064676
vn 0.064676 -0.040423 0.064676
vn 0.064676 0.040423 -0.064676
vn 0.064676 0.040423 -0.064676
vn 0.064676 0.040423 -0.064676
vn -0.064676 0.040423 -0.064676
vn -0.064676 0.040423 -0.064676
vn -0.064676 0.040423 -0.064676
vn -0.064676 0.040423 0.064676
vn -0.064676 0.040423 0.064676
vn -0.064676 0.040423 0.064676
vn 0.064676 0.040423 0.064676
vn 0.064676 0.040423 0.064676
vn 0.064676 0.040423 0.064676
usemtl Steel_-_Satin
f 1/1/1 2/2/2 3/3/3
f 4/4/4 1/5/5 3/6/6
f 5/7/7 4/8/8 3/9/9
f 2/10/10 5/11/11 3/12/12
f 2/13/13 1/14/14 6/15/15
f 1/16/16 4/17/17 6/18/18
f 4/19/19 5/20/20 6/21/21
f 5/22/22 2/23/23 6/24/24
# 6 vertices
# 24 texture params
# 24 normals
# 8 facets

# 1 groups