# WaveFront *.obj file (generated by Autodesk ATF)

mtllib f9fb30f6-7c98-431e-b803-6847d2168dd8.mtl

g Body1

v -292.859359 -450.000000 -25.000000
v -442.859359 -450.000000 234.807621
v -442.859359 50.000000 234.807621
v -292.859359 50.000000 -25.000000
v 7.140641 -450.000000 -25.000000
v 7.140641 50.000000 -25.000000
v 157.140641 -450.000000 234.807621
v 157.140641 50.000000 234.807621
v 7.140641 -450.000000 494.615242
v 7.140641 50.000000 494.615242
v -292.859359 -450.000000 494.615242
v -292.859359 50.000000 494.615242
vt 0.000000 0.000000 0.000000
vt 30.000000 0.000000 0.000000
vt -0.000000 50.000000 0.000000
vt 30.000000 50.000000 0.000000
vt -0.000000 0.000000 0.000000
vt 30.000000 0.000000 0.000000
vt 0.000000 50.000000 0.000000
vt 30.000000 50.000000 0.000000
vt -0.000000 0.000000 0.000000
vt 30.000000 0.000000 0.000000
vt -0.000000 50.000000 0.000000
vt 30.000000 50.000000 0.000000
vt 0.000000 0.000000 0.000000
vt 30.000000 0.000000 0.000000
vt 0.000000 50.000000 0.000000
vt 30.000000 50.000000 0.000000
vt 0.000000 0.000000 0.000000
vt 30.000000 0.000000 0.000000
vt 0.000000 50.000000 0.000000
vt 30.000000 50.000000 0.000000
vt 0.000000 0.000000 0.000000
vt 30.000000 0.000000 0.000000
vt 0.000000 50.000000 0.000000
vt 30.000000 50.000000 0.000000
vt 25.980762 -15.000000 0.000000
vt 0.000000 30.000000 0.000000
vt -0.000000 -30.000000 0.000000
vt -25.980762 15.000000 0.000000
vt -25.980762 -15.000000 0.000000
vt 25.980762 15.000000 0.000000
vt -15.000000 -25.980762 0.000000
vt 15.000000 -25.980762 0.000000
vt -30.000000 -0.000000 0.000000
vt 30.000000 0.000000 0.000000
vt -15.000000 25.980762 0.000000
vt 15.000000 25.980762 0.000000
vn -0.086603 0.000000 -0.050000
vn -0.086603 0.000000 -0.050000
vn -0.086603 0.000000 -0.050000
vn -0.086603 0.000000 -0.050000
vn 0.000000 0.000000 -0.100000
vn 0.000000 0.000000 -0.100000
vn 0.000000 0.000000 -0.100000
vn 0.000000 0.000000 -0.100000
vn 0.086603 0.000000 -0.050000
vn 0.086603 0.000000 -0.050000
vn 0.086603 0.000000 -0.050000
vn 0.086603 0.000000 -0.050000
vn 0.086603 0.000000 0.050000
vn 0.086603 0.000000 0.050000
vn 0.086603 0.000000 0.050000
vn 0.086603 0.000000 0.050000
vn 0.000000 0.000000 0.100000
vn 0.000000 0.000000 0.100000
vn 0.000000 0.000000 0.100000
vn 0.000000 0.000000 0.100000
vn -0.086603 0.000000 0.050000
vn -0.086603 0.000000 0.050000
vn -0.086603 0.000000 0.050000
vn -0.086603 0.000000 0.050000
vn 0.000000 0.100000 0.000000
vn 0.000000 0.100000 0.000000
vn 0.000000 0.100000 0.000000
vn 0.000000 0.100000 0.000000
vn 0.000000 0.100000 0.000000
vn 0.000000 0.100000 0.000000
vn 0.000000 -0.100000 0.000000
vn 0.000000 -0.100000 0.000000
vn 0.000000 -0.100000 0.000000
vn 0.000000 -0.100000 0.000000
vn 0.000000 -0.100000 0.000000
vn 0.000000 -0.100000 0.000000
usemtl Steel_-_Satin
f 1/1/1 2/2/2 4/3/3
f 4/3/3 2/2/2 3/4/4
f 5/5/5 1/6/6 6/7/7
f 6/7/7 1/6/6 4/8/8
f 7/9/9 5/10/10 8/11/11
f 8/11/11 5/10/10 6/12/12
f 9/13/13 7/14/14 10/15/15
f 10/15/15 7/14/14 8/16/16
f 11/17/17 9/18/18 12/19/19
f 12/19/19 9/18/18 10/20/20
f 2/21/21 11/22/22 3/23/23
f 3/23/23 11/22/22 12/24/24
f 12/25/25 8/26/26 3/27/27
f 3/27/27 8/26/26 6/28/28
f 3/27/27 6/28/28 4/29/29
f 12/25/25 10/30/30 8/26/26
f 9/31/31 11/32/32 7/33/33
f 7/33/33 11/32/32 2/34/34
f 7/33/33 2/34/34 5/35/35
f 5/35/35 2/34/34 1/36/36
# 12 vertices
# 36 texture params
# 36 normals
# 20 facets

# 1 groups
